<svg width="4" height="4" viewBox="0 0 4 4" fill="none" xmlns="http://www.w3.org/2000/svg">
<path d="M3.94139 3.65841C3.95997 3.67699 3.97471 3.69905 3.98477 3.72332C3.99482 3.7476 4 3.77362 4 3.7999C4 3.82618 3.99482 3.8522 3.98477 3.87647C3.97471 3.90075 3.95997 3.92281 3.94139 3.94139C3.92281 3.95997 3.90075 3.97471 3.87647 3.98477C3.8522 3.99482 3.82618 4 3.7999 4C3.77362 4 3.7476 3.99482 3.72332 3.98477C3.69905 3.97471 3.67699 3.95997 3.65841 3.94139L2 2.28273L0.341592 3.94139C0.304066 3.97892 0.25317 4 0.2001 4C0.14703 4 0.096134 3.97892 0.0586079 3.94139C0.0210819 3.90387 1.04613e-09 3.85297 0 3.7999C-1.04613e-09 3.74683 0.0210819 3.69593 0.0586079 3.65841L1.71727 2L0.0586079 0.341592C0.0210819 0.304066 0 0.25317 0 0.2001C0 0.14703 0.0210819 0.096134 0.0586079 0.0586079C0.096134 0.0210819 0.14703 0 0.2001 0C0.25317 0 0.304066 0.0210819 0.341592 0.0586079L2 1.71727L3.65841 0.0586079C3.69593 0.0210819 3.74683 -1.04613e-09 3.7999 0C3.85297 1.04613e-09 3.90387 0.0210819 3.94139 0.0586079C3.97892 0.096134 4 0.14703 4 0.2001C4 0.25317 3.97892 0.304066 3.94139 0.341592L2.28273 2L3.94139 3.65841Z" fill="#222222"/>
</svg>
